HIERARCHY
ROOT Hips
{
	OFFSET 0.00000 0.00000 0.00000
	CHANNELS 6 Xposition Yposition Zposition Zrotation Yrotation Xrotation 
	JOINT LHipJoint
	{
		OFFSET 0 0 0
		CHANNELS 3 Zrotation Yrotation Xrotation
		JOINT LeftUpLeg
		{
			OFFSET 1.23340 -1.80723 0.69510
			CHANNELS 3 Zrotation Yrotation Xrotation
			JOINT LeftLeg
			{
				OFFSET 2.50056 -6.87023 0.00000
				CHANNELS 3 Zrotation Yrotation Xrotation
				JOINT LeftFoot
				{
					OFFSET 2.85931 -7.85591 0.00000
					CHANNELS 3 Zrotation Yrotation Xrotation
					JOINT LeftToeBase
					{
						OFFSET 0.21001 -0.57700 2.07823
						CHANNELS 3 Zrotation Yrotation Xrotation
						End Site
						{
							OFFSET 0.00000 -0.00000 1.08338
						}
					}
				}
			}
		}
	}
	JOINT RHipJoint
	{
		OFFSET 0 0 0
		CHANNELS 3 Zrotation Yrotation Xrotation
		JOINT RightUpLeg
		{
			OFFSET -1.40842 -1.80723 0.69510
			CHANNELS 3 Zrotation Yrotation Xrotation
			JOINT RightLeg
			{
				OFFSET -2.54876 -7.00266 0.00000
				CHANNELS 3 Zrotation Yrotation Xrotation
				JOINT RightFoot
				{
					OFFSET -2.74835 -7.55104 0.00000
					CHANNELS 3 Zrotation Yrotation Xrotation
					JOINT RightToeBase
					{
						OFFSET -0.22633 -0.62184 2.00890
						CHANNELS 3 Zrotation Yrotation Xrotation
						End Site
						{
							OFFSET -0.00000 -0.00000 1.05493
						}
					}
				}
			}
		}
	}
	JOINT LowerBack
	{
		OFFSET 0 0 0
		CHANNELS 3 Zrotation Yrotation Xrotation
		JOINT Spine
		{
			OFFSET -0.02340 2.02740 -0.12728
			CHANNELS 3 Zrotation Yrotation Xrotation
			JOINT Spine1
			{
				OFFSET -0.00862 2.03614 -0.01188
				CHANNELS 3 Zrotation Yrotation Xrotation
				JOINT Neck
				{
					OFFSET 0 0 0
					CHANNELS 3 Zrotation Yrotation Xrotation
					JOINT Neck1
					{
						OFFSET 0.03380 1.76650 0.27670
						CHANNELS 3 Zrotation Yrotation Xrotation
						JOINT Head
						{
							OFFSET -0.01114 1.80516 -0.21451
							CHANNELS 3 Zrotation Yrotation Xrotation
							End Site
							{
								OFFSET -0.00766 1.81942 -0.10287
							}
						}
					}
				}
				JOINT LeftShoulder
				{
					OFFSET 0 0 0
					CHANNELS 3 Zrotation Yrotation Xrotation
					JOINT LeftArm
					{
						OFFSET 3.22358 1.39475 0.18630
						CHANNELS 3 Zrotation Yrotation Xrotation
						JOINT LeftForeArm
						{
							OFFSET 5.45077 -0.00000 0.00000
							CHANNELS 3 Zrotation Yrotation Xrotation
							JOINT LeftHand
							{
								OFFSET 3.05488 -0.00000 0.00000
								CHANNELS 3 Zrotation Yrotation Xrotation
								JOINT LeftFingerBase
								{
									OFFSET 0 0 0
									CHANNELS 3 Zrotation Yrotation Xrotation
									JOINT LeftHandIndex1
									{
										OFFSET 0.63882 -0.00000 0.00000
										CHANNELS 3 Zrotation Yrotation Xrotation
										End Site
										{
											OFFSET 0.51503 -0.00000 0.00000
										}
									}
								}
								JOINT LThumb
								{
									OFFSET 0 0 0
									CHANNELS 3 Zrotation Yrotation Xrotation
									End Site
									{
										OFFSET 0.52290 -0.00000 0.52290
									}
								}
							}
						}
					}
				}
				JOINT RightShoulder
				{
					OFFSET 0 0 0
					CHANNELS 3 Zrotation Yrotation Xrotation
					JOINT RightArm
					{
						OFFSET -3.57143 1.14055 0.30691
						CHANNELS 3 Zrotation Yrotation Xrotation
						JOINT RightForeArm
						{
							OFFSET -4.88702 -0.00000 -0.00000
							CHANNELS 3 Zrotation Yrotation Xrotation
							JOINT RightHand
							{
								OFFSET -3.22603 -0.00000 0.00000
								CHANNELS 3 Zrotation Yrotation Xrotation
								JOINT RightFingerBase
								{
									OFFSET 0 0 0
									CHANNELS 3 Zrotation Yrotation Xrotation
									JOINT RightHandIndex1
									{
										OFFSET -0.71629 -0.00000 0.00000
										CHANNELS 3 Zrotation Yrotation Xrotation
										End Site
										{
											OFFSET -0.57749 -0.00000 0.00000
										}
									}
								}
								JOINT RThumb
								{
									OFFSET 0 0 0
									CHANNELS 3 Zrotation Yrotation Xrotation
									End Site
									{
										OFFSET -0.58631 -0.00000 0.58631
									}
								}
							}
						}
					}
				}
			}
		}
	}
}
MOTION
Frames: 15
Frame Time: .0083333
1.6235 18.4754 0.3742 0 0 0 0 0 0 -21 0 0 0 0 0 0 0 0 0 0 0 0 0 0 21 0 0 0 0 0 0 0 0 0 0 0 0 0 0 0 0 0 0 0 0 0 0 -16 0 0 21 0 0 11 0 0 0 -8 0 0 0 0 0 0 0 0 0 0 0 0 0 0 0 0 0 0 0 0 8 0 0 0 0 0 0 0 0 0 0 0 0 0 0 0 0 0
1.6235 18.4754 0.3742 150.5140 86.6558 161.3490 0.0000 0.0000 0.0000 -18.2684 5.6688 -16.0035 0.8626 5.9223 16.5591 0.5329 -6.2566 -13.0726 1.5787 -7.9270 -22.4927 0.0000 0.0000 0.0000 14.7676 -3.1118 -5.7508 -0.0110 -0.6776 1.8621 -0.1938 3.0547 -7.8224 -0.5089 4.5729 -12.6942 -0.4244 -1.3637 -10.3446 -0.4149 -1.6000 -4.3569 -0.3678 -0.7293 1.2684 2.0860 -0.2335 -17.1633 -0.0841 -0.7144 21.5747 -0.4596 -0.0958 9.6609 -0.0000 0.0000 0.0000 -83.8441 5.2894 20.6581 24.0149 -35.1800 -7.7151 -0.0000 0.0000 -171.0830 30.8907 -18.8120 -10.9193 -7.1250 0.0000 -0.0000 1.7332 8.3362 -1.4643 -0.0000 0.0000 0.0000 89.4710 -2.9256 20.9253 -22.8162 33.8872 -7.0355 0.0000 -0.0000 -157.9230 -25.7825 -8.5688 4.1166 7.1250 -0.0000 -0.0000 0.9654 -39.4778 0.1314
1.6240 18.4744 0.3735 149.9700 86.6524 160.8170 0.0000 0.0000 0.0000 -18.3103 5.6630 -16.0204 0.8636 5.9257 16.5690 0.5348 -6.2308 -13.0915 1.6089 -7.9989 -22.7106 0.0000 0.0000 0.0000 14.7301 -3.1161 -5.7252 -0.0102 -0.6531 1.7947 -0.1928 3.0196 -7.8018 -0.5125 4.5889 -12.7396 -0.4507 -1.3432 -10.3301 -0.4239 -1.5700 -4.3662 -0.3586 -0.7140 1.2514 2.0625 -0.2559 -17.1750 -0.0691 -0.7426 21.6005 -0.4542 -0.1085 9.6720 -0.0000 -0.0000 0.0000 -83.8633 5.2610 20.6524 24.0088 -35.1735 -7.7116 -0.0000 0.0000 -171.1170 31.0491 -18.9119 -11.0411 -7.1250 0.0000 -0.0000 1.8210 8.1921 -1.5437 -0.0000 -0.0000 0.0000 89.4630 -2.8937 20.8836 -22.7948 33.8636 -7.0236 0.0000 -0.0000 -157.9080 -25.7692 -8.6066 4.1321 7.1250 -0.0000 -0.0000 0.9800 -39.5183 0.1324
1.6253 18.4761 0.3734 151.0420 86.6709 161.9060 0.0000 0.0000 0.0000 -18.2219 5.5962 -16.0153 0.8639 5.9267 16.5720 0.5366 -6.2250 -13.1129 1.5521 -7.8631 -22.2991 0.0000 0.0000 0.0000 14.8068 -3.1287 -5.6984 -0.0092 -0.6180 1.6982 -0.1906 2.9870 -7.7562 -0.5249 4.6432 -12.8936 -0.3917 -1.3405 -10.3392 -0.3986 -1.5724 -4.3682 -0.3660 -0.7156 1.2534 2.0723 -0.2619 -17.1759 -0.0958 -0.7470 21.6124 -0.4658 -0.1127 9.6761 -0.0000 -0.0000 0.0000 -83.8901 5.2319 20.6181 24.0217 -35.1872 -7.7191 -0.0000 0.0000 -171.0850 31.3002 -19.1348 -11.2715 -7.1250 0.0000 -0.0000 1.9504 7.8902 -1.6652 -0.0000 -0.0000 0.0000 89.4636 -2.8725 20.8592 -22.8323 33.9049 -7.0445 0.0000 -0.0000 -157.8790 -25.7719 -8.5714 4.1159 7.1250 -0.0000 -0.0000 0.9749 -39.4797 0.1326
1.6255 18.4785 0.3739 150.9230 86.6717 161.7970 0.0000 0.0000 0.0000 -18.2066 5.5367 -16.0011 0.8633 5.9247 16.5662 0.5368 -6.2421 -13.1166 1.4929 -7.7186 -21.8627 0.0000 0.0000 0.0000 14.8057 -3.0927 -5.7881 -0.0107 -0.6692 1.8389 -0.1923 3.0151 -7.7919 -0.5320 4.6739 -12.9807 -0.3923 -1.3427 -10.3406 -0.4098 -1.5750 -4.3686 -0.3775 -0.7169 1.2535 2.0635 -0.2597 -17.1633 -0.0585 -0.7496 21.6279 -0.4516 -0.1097 9.6795 0.0000 0.0000 0.0000 -83.8688 5.2129 20.6021 24.0364 -35.2027 -7.7275 -0.0000 0.0000 -171.0990 31.6477 -19.3658 -11.5511 -7.1250 0.0000 -0.0000 2.1387 7.5577 -1.8402 0.0000 0.0000 0.0000 89.4850 -2.8523 20.8728 -22.8466 33.9206 -7.0525 0.0000 -0.0000 -157.9090 -25.7839 -8.5039 4.0860 7.1250 -0.0000 -0.0000 0.9590 -39.4062 0.1322
1.6256 18.4760 0.3745 150.2180 86.6562 161.0820 0.0000 0.0000 0.0000 -18.2562 5.5230 -15.9861 0.8655 5.9322 16.5878 0.5375 -6.2117 -13.1223 1.5239 -7.7948 -22.0924 0.0000 0.0000 0.0000 14.7506 -3.1253 -5.7063 -0.0092 -0.6201 1.7041 -0.1890 3.0070 -7.7241 -0.5058 4.5590 -12.6549 -0.4422 -1.3400 -10.3123 -0.4294 -1.5665 -4.3723 -0.3682 -0.7123 1.2351 2.0416 -0.2663 -17.1125 0.0017 -0.7655 21.6010 -0.4288 -0.1121 9.6608 0.0000 -0.0000 0.0000 -83.8517 5.2107 20.6040 24.0666 -35.2346 -7.7450 -0.0000 0.0000 -171.1870 32.0068 -19.3576 -11.7047 -7.1250 0.0000 -0.0000 2.3680 7.4913 -2.0408 0.0000 -0.0000 0.0000 89.5057 -2.8442 20.8320 -22.8618 33.9374 -7.0610 0.0000 -0.0000 -157.9300 -25.8918 -8.3100 4.0129 7.1250 -0.0000 -0.0000 0.8503 -39.2005 0.1215
1.6263 18.4737 0.3749 150.0350 86.6696 160.9190 0.0000 0.0000 0.0000 -18.2687 5.5391 -16.0049 0.8666 5.9359 16.5985 0.5395 -6.2068 -13.1453 1.5508 -7.8600 -22.2897 0.0000 0.0000 0.0000 14.7463 -3.1188 -5.6827 -0.0085 -0.5961 1.6380 -0.1871 2.9842 -7.6863 -0.4976 4.5226 -12.5519 -0.4506 -1.3488 -10.3046 -0.4319 -1.5764 -4.3970 -0.3666 -0.7167 1.2054 2.0407 -0.2464 -17.0419 0.0323 -0.7424 21.5709 -0.4147 -0.0981 9.6375 -0.0000 -0.0000 0.0000 -83.8686 5.2049 20.4878 24.0747 -35.2431 -7.7496 -0.0000 0.0000 -171.1440 31.7909 -18.3511 -11.0419 -7.1250 0.0000 -0.0000 2.3736 8.6762 -1.9901 -0.0000 -0.0000 0.0000 89.5306 -2.8302 20.8108 -22.8453 33.9192 -7.0518 0.0000 -0.0000 -157.8890 -26.0547 -8.3020 4.0381 7.1250 -0.0000 -0.0000 0.7082 -39.2046 0.1011
1.6270 18.4756 0.3757 150.6050 86.6732 161.5080 0.0000 0.0000 0.0000 -18.2244 5.5414 -16.0380 0.8665 5.9355 16.5975 0.5398 -6.2668 -13.1543 1.5160 -7.7754 -22.0340 0.0000 0.0000 0.0000 14.7887 -3.0932 -5.7745 -0.0102 -0.6508 1.7885 -0.1917 3.0234 -7.7795 -0.5058 4.5591 -12.6551 -0.4183 -1.3645 -10.2747 -0.4225 -1.6001 -4.4256 -0.3766 -0.7284 1.1587 2.0751 -0.2298 -17.0568 -0.0351 -0.7111 21.6575 -0.4399 -0.0868 9.6706 -0.0000 -0.0000 0.0000 -83.8872 5.1919 20.3867 24.0698 -35.2380 -7.7468 -0.0000 0.0000 -171.1220 31.0431 -17.4981 -10.2579 -7.1250 0.0000 -0.0000 2.0061 9.7880 -1.6369 -0.0000 -0.0000 0.0000 89.5372 -2.8492 20.8400 -22.8647 33.9405 -7.0626 0.0000 -0.0000 -157.8920 -26.2042 -8.3567 4.0912 7.1250 -0.0000 -0.0000 0.5822 -39.2771 0.0821
1.6267 18.4765 0.3766 149.8240 86.6523 160.7330 0.0000 0.0000 0.0000 -18.2611 5.4468 -16.0185 0.8676 5.9392 16.6081 0.5442 -6.2169 -13.2001 1.4875 -7.7052 -21.8222 0.0000 0.0000 0.0000 14.7346 -3.0884 -5.8057 -0.0106 -0.6650 1.8274 -0.1922 3.0702 -7.7901 -0.4941 4.5069 -12.5074 -0.4656 -1.3647 -10.2199 -0.4423 -1.5957 -4.4413 -0.3686 -0.7258 1.1131 2.0932 -0.2454 -17.1584 -0.0786 -0.7280 21.8219 -0.4609 -0.0951 9.7472 -0.0000 0.0000 0.0000 -83.8778 5.1958 20.3815 24.1020 -35.2719 -7.7654 -0.0000 0.0000 -171.2860 29.9463 -17.2730 -9.7070 -7.1250 0.0000 -0.0000 1.3209 10.2430 -1.0652 -0.0000 0.0000 0.0000 89.5648 -2.8631 20.7917 -22.8961 33.9749 -7.0801 0.0000 -0.0000 -157.8220 -26.2324 -8.3794 4.1073 7.1250 -0.0000 -0.0000 0.5592 -39.3046 0.0785
1.6260 18.4757 0.3763 149.2050 86.6404 160.1040 0.0000 0.0000 0.0000 -18.2958 5.3908 -15.9747 0.8685 5.9420 16.6163 0.5493 -6.1806 -13.2566 1.4638 -7.6462 -21.6446 0.0000 0.0000 0.0000 14.6848 -3.0874 -5.8071 -0.0107 -0.6680 1.8358 -0.1923 3.0898 -7.7931 -0.4854 4.4676 -12.3961 -0.5193 -1.3841 -10.1641 -0.4344 -1.6178 -4.4410 -0.3313 -0.7364 1.0847 2.0981 -0.2369 -17.2010 -0.1007 -0.7126 21.8814 -0.4676 -0.0891 9.7763 0.0000 0.0000 0.0000 -83.9297 5.2128 20.2665 24.1898 -35.3643 -7.8161 -0.0000 0.0000 -171.3460 32.0553 -19.8026 -11.9777 -7.1250 0.0000 -0.0000 2.3332 6.9776 -2.0342 0.0000 0.0000 0.0000 89.5397 -2.8423 20.8071 -22.9180 33.9990 -7.0924 0.0000 -0.0000 -157.8250 -26.3516 -8.3244 4.1020 7.1250 -0.0000 -0.0000 0.4516 -39.2532 0.0639
1.6258 18.4752 0.3766 149.7160 86.6511 160.6060 0.0000 0.0000 0.0000 -18.2619 5.4298 -15.9628 0.8660 5.9337 16.5920 0.5470 -6.2044 -13.2326 1.4766 -7.6781 -21.7405 0.0000 0.0000 0.0000 14.7195 -3.0220 -5.9807 -0.0151 -0.7928 2.1788 -0.2000 3.1898 -7.9502 -0.4929 4.5013 -12.4916 -0.4944 -1.3887 -10.1436 -0.4156 -1.6281 -4.4200 -0.3268 -0.7423 1.0951 2.0926 -0.2224 -17.2628 -0.1074 -0.6903 21.9519 -0.4664 -0.0789 9.8131 -0.0000 0.0000 0.0000 -83.9768 5.1571 20.1601 24.2401 -35.4171 -7.8453 -0.0000 0.0000 -171.3050 33.1426 -20.8873 -13.1049 -7.1250 0.0000 -0.0000 2.8473 5.5042 -2.5643 -0.0000 0.0000 0.0000 89.5135 -2.7934 20.7756 -22.9270 34.0089 -7.0974 0.0000 -0.0000 -157.9360 -26.4219 -8.2698 4.0879 7.1250 -0.0000 -0.0000 0.3867 -39.1981 0.0553
1.6260 18.4736 0.3768 149.7210 86.6515 160.6260 0.0000 0.0000 0.0000 -18.2668 5.4585 -15.9897 0.8646 5.9291 16.5787 0.5438 -6.2093 -13.1958 1.4795 -7.6853 -21.7621 0.0000 0.0000 0.0000 14.7192 -2.9596 -6.1542 -0.0193 -0.8977 2.4674 -0.2076 3.2655 -8.1003 -0.5014 4.5395 -12.5997 -0.5028 -1.3827 -10.1546 -0.4161 -1.6195 -4.4086 -0.3221 -0.7381 1.1132 2.1258 -0.2143 -17.2994 -0.1258 -0.6836 22.0235 -0.4776 -0.0737 9.8453 0.0000 -0.0000 0.0000 -83.9829 5.1122 20.1685 24.2537 -35.4314 -7.8532 -0.0000 0.0000 -171.3450 34.0391 -21.6942 -14.0201 -7.1250 0.0000 -0.0000 3.2684 4.3703 -3.0148 0.0000 -0.0000 0.0000 89.5235 -2.7745 20.7073 -22.9681 34.0539 -7.1204 0.0000 -0.0000 -158.0030 -26.4705 -8.0850 4.0060 7.1250 -0.0000 -0.0000 0.3319 -38.9967 0.0491
1.6264 18.4718 0.3764 149.8370 86.6522 160.7540 0.0000 0.0000 0.0000 -18.2776 5.5203 -16.0263 0.8642 5.9278 16.5750 0.5445 -6.2477 -13.2067 1.4960 -7.7261 -21.8853 0.0000 0.0000 0.0000 14.7222 -2.9276 -6.2507 -0.0218 -0.9523 2.6175 -0.2115 3.2998 -8.1755 -0.5145 4.5977 -12.7645 -0.4802 -1.3696 -10.1462 -0.4266 -1.6040 -4.4136 -0.3437 -0.7306 1.1026 2.1569 -0.2193 -17.2474 -0.1593 -0.6884 22.0217 -0.4950 -0.0769 9.8345 0.0000 -0.0000 0.0000 -83.9685 5.1009 20.1635 24.2854 -35.4646 -7.8715 -0.0000 0.0000 -171.4230 31.7989 -19.8914 -11.9118 -7.1250 0.0000 -0.0000 2.1581 6.9327 -1.8832 0.0000 -0.0000 0.0000 89.5429 -2.7657 20.6540 -22.9927 34.0809 -7.1342 0.0000 -0.0000 -158.0260 -26.4454 -7.9927 3.9563 7.1250 -0.0000 -0.0000 0.3476 -38.8921 0.0523
1.6281 18.4725 0.3761 149.3580 86.6528 160.2790 0.0000 0.0000 0.0000 -18.2988 5.5549 -16.0363 0.8667 5.9361 16.5991 0.5449 -6.3579 -13.2231 1.4634 -7.6454 -21.6421 0.0000 0.0000 0.0000 14.6881 -2.9382 -6.1982 -0.0206 -0.9268 2.5475 -0.2097 3.3237 -8.1416 -0.5087 4.5720 -12.6917 -0.4910 -1.3666 -10.1600 -0.4425 -1.5984 -4.4108 -0.3538 -0.7278 1.1128 2.1647 -0.2184 -17.1550 -0.1624 -0.6852 21.9877 -0.4965 -0.0752 9.8051 -0.0000 0.0000 0.0000 -83.9595 5.0863 20.1133 24.3281 -35.5093 -7.8963 -0.0000 0.0000 -171.4340 31.3024 -19.4354 -11.4383 -7.1250 0.0000 -0.0000 1.9094 7.5512 -1.6429 -0.0000 0.0000 0.0000 89.5470 -2.7590 20.6391 -23.0058 34.0952 -7.1416 0.0000 -0.0000 -158.0640 -26.3477 -8.0105 3.9481 7.1250 -0.0000 -0.0000 0.4335 -38.9043 0.0651
1.6292 18.4743 0.3763 148.9530 86.6238 159.8810 0.0000 0.0000 0.0000 -18.3041 5.4433 -16.0016 0.8685 5.9421 16.6165 0.5463 -6.3699 -13.2398 1.4041 -7.4954 -21.1915 0.0000 0.0000 0.0000 14.6494 -2.9681 -6.1775 -0.0198 -0.9076 2.4945 -0.2077 3.3164 -8.1028 -0.4983 4.5256 -12.5604 -0.5186 -1.3792 -10.1648 -0.4529 -1.6124 -4.4061 -0.3507 -0.7346 1.1208 2.1948 -0.2147 -17.1334 -0.2150 -0.6739 22.0041 -0.5184 -0.0732 9.8067 -0.0000 0.0000 0.0000 -83.9651 5.0680 20.0334 24.3637 -35.5466 -7.9170 -0.0000 0.0000 -171.4440 31.3698 -19.3058 -11.3962 -7.1250 0.0000 -0.0000 1.9706 7.6833 -1.6905 -0.0000 0.0000 0.0000 89.5412 -2.7625 20.6177 -23.0383 34.1307 -7.1598 0.0000 -0.0000 -158.0990 -26.2690 -8.0560 3.9567 7.1250 -0.0000 -0.0000 0.5047 -38.9488 0.0752
